HIERARCHY
ROOT Hips
{
	OFFSET 0.000000 100.481300 0.000000
	CHANNELS 6 Xposition Yposition Zposition Xrotation Yrotation Zrotation 
	JOINT Spine
	{
		OFFSET -0.279200 12.230698 -2.892100
		CHANNELS 3 Xrotation Yrotation Zrotation
		JOINT Spine1
		{
			OFFSET -0.232667 10.192268 -1.242267
			CHANNELS 3 Xrotation Yrotation Zrotation
			JOINT Spine1_split
			{
				OFFSET -0.232667 10.192268 -1.242267
				CHANNELS 3 Xrotation Yrotation Zrotation
				JOINT Spine2
				{
					OFFSET -0.232667 10.192268 -1.242267
					CHANNELS 3 Xrotation Yrotation Zrotation
					JOINT Neck
					{
						OFFSET -0.418800 17.814194 8.416900
						CHANNELS 3 Xrotation Yrotation Zrotation
						JOINT Head
						{
							OFFSET 0.000000 7.031097 3.806800
							CHANNELS 3 Xrotation Yrotation Zrotation
							JOINT HeadTop_End
							{
								OFFSET 0.000000 24.646606 12.978600
								CHANNELS 3 Xrotation Yrotation Zrotation
								End Site
								{
									OFFSET 0.000000 0.000000 0.000000
								}
							}
						}
					}
					JOINT LeftShoulder
					{
						OFFSET 8.476499 7.247704 -3.868750
						CHANNELS 3 Xrotation Yrotation Zrotation
						JOINT LeftShoulder_split
						{
							OFFSET 8.476499 7.247704 -3.868750
							CHANNELS 3 Xrotation Yrotation Zrotation
							JOINT LeftArm
							{
								OFFSET 9.308998 -2.777710 0.208600
								CHANNELS 3 Xrotation Yrotation Zrotation
								JOINT LeftForeArm
								{
									OFFSET 29.972298 0.000000 0.000000
									CHANNELS 3 Xrotation Yrotation Zrotation
									JOINT LeftHand
									{
										OFFSET 26.026505 0.000000 0.000000
										CHANNELS 3 Xrotation Yrotation Zrotation
										JOINT LeftHandThumb1
										{
											OFFSET 12.240501 -7.147949 9.207150
											CHANNELS 3 Xrotation Yrotation Zrotation
											JOINT LeftHandThumb2
											{
												OFFSET 4.138618 -2.389435 2.389433
												CHANNELS 3 Xrotation Yrotation Zrotation
												JOINT LeftHandThumb3
												{
													OFFSET 2.726913 -1.574387 1.574386
													CHANNELS 3 Xrotation Yrotation Zrotation
													JOINT LeftHandThumb4
													{
														OFFSET 3.941010 -2.275345 2.275342
														CHANNELS 3 Xrotation Yrotation Zrotation
														End Site
														{
															OFFSET 0.000000 0.000000 0.000000
														}
													}
												}
											}
										}
										JOINT LeftHandIndex1
										{
											OFFSET 24.424698 -1.985611 5.953459
											CHANNELS 3 Xrotation Yrotation Zrotation
											JOINT LeftHandIndex2
											{
												OFFSET 6.426697 0.000000 0.000000
												CHANNELS 3 Xrotation Yrotation Zrotation
												JOINT LeftHandIndex3
												{
													OFFSET 5.337898 0.000000 0.000000
													CHANNELS 3 Xrotation Yrotation Zrotation
													JOINT LeftHandIndex4
													{
														OFFSET 4.409401 0.000000 0.000000
														CHANNELS 3 Xrotation Yrotation Zrotation
														End Site
														{
															OFFSET 0.000000 0.000000 0.000000
														}
													}
												}
											}
										}
										JOINT LeftHandMiddle1
										{
											OFFSET 23.810104 0.000000 0.000000
											CHANNELS 3 Xrotation Yrotation Zrotation
											JOINT LeftHandMiddle2
											{
												OFFSET 7.176498 0.000000 0.000000
												CHANNELS 3 Xrotation Yrotation Zrotation
												JOINT LeftHandMiddle3
												{
													OFFSET 6.774902 0.000000 0.000000
													CHANNELS 3 Xrotation Yrotation Zrotation
													JOINT LeftHandMiddle4
													{
														OFFSET 5.403328 0.000000 0.000000
														CHANNELS 3 Xrotation Yrotation Zrotation
														End Site
														{
															OFFSET 0.000000 0.000000 0.000000
														}
													}
												}
											}
										}
										JOINT LeftHandRing1
										{
											OFFSET 22.908401 -0.839279 -6.020567
											CHANNELS 3 Xrotation Yrotation Zrotation
											JOINT LeftHandRing2
											{
												OFFSET 6.337502 0.000000 0.000000
												CHANNELS 3 Xrotation Yrotation Zrotation
												JOINT LeftHandRing3
												{
													OFFSET 5.779297 0.000000 0.000000
													CHANNELS 3 Xrotation Yrotation Zrotation
													JOINT LeftHandRing4
													{
														OFFSET 4.965698 0.000000 0.000000
														CHANNELS 3 Xrotation Yrotation Zrotation
														End Site
														{
															OFFSET 0.000000 0.000000 0.000000
														}
													}
												}
											}
										}
										JOINT LeftHandPinky1
										{
											OFFSET 20.037003 -1.530319 -10.950146
											CHANNELS 3 Xrotation Yrotation Zrotation
											JOINT LeftHandPinky2
											{
												OFFSET 5.254700 0.000000 0.000000
												CHANNELS 3 Xrotation Yrotation Zrotation
												JOINT LeftHandPinky3
												{
													OFFSET 4.810204 0.000000 0.000000
													CHANNELS 3 Xrotation Yrotation Zrotation
													JOINT LeftHandPinky4
													{
														OFFSET 3.647202 0.000000 0.000000
														CHANNELS 3 Xrotation Yrotation Zrotation
														End Site
														{
															OFFSET 0.000000 0.000000 0.000000
														}
													}
												}
											}
										}
									}
								}
							}
						}
					}
					JOINT RightShoulder
					{
						OFFSET -7.570500 7.247704 -3.868750
						CHANNELS 3 Xrotation Yrotation Zrotation
						JOINT RightShoulder_split
						{
							OFFSET -7.570500 7.247704 -3.868750
							CHANNELS 3 Xrotation Yrotation Zrotation
							JOINT RightArm
							{
								OFFSET -9.308998 -2.777710 0.208500
								CHANNELS 3 Xrotation Yrotation Zrotation
								JOINT RightForeArm
								{
									OFFSET -29.972300 0.000000 0.000000
									CHANNELS 3 Xrotation Yrotation Zrotation
									JOINT RightHand
									{
										OFFSET -26.026505 0.000000 0.000000
										CHANNELS 3 Xrotation Yrotation Zrotation
										JOINT RightHandThumb1
										{
											OFFSET -12.240601 -7.148026 9.207092
											CHANNELS 3 Xrotation Yrotation Zrotation
											JOINT RightHandThumb2
											{
												OFFSET -4.138618 -2.389435 2.389433
												CHANNELS 3 Xrotation Yrotation Zrotation
												JOINT RightHandThumb3
												{
													OFFSET -2.726974 -1.574417 1.574421
													CHANNELS 3 Xrotation Yrotation Zrotation
													JOINT RightHandThumb4
													{
														OFFSET -3.941010 -2.275345 2.275343
														CHANNELS 3 Xrotation Yrotation Zrotation
														End Site
														{
															OFFSET 0.000000 0.000000 0.000000
														}
													}
												}
											}
										}
										JOINT RightHandIndex1
										{
											OFFSET -24.424698 -1.985657 5.953444
											CHANNELS 3 Xrotation Yrotation Zrotation
											JOINT RightHandIndex2
											{
												OFFSET -6.426697 0.000000 0.000000
												CHANNELS 3 Xrotation Yrotation Zrotation
												JOINT RightHandIndex3
												{
													OFFSET -5.337898 0.000000 0.000000
													CHANNELS 3 Xrotation Yrotation Zrotation
													JOINT RightHandIndex4
													{
														OFFSET -4.409401 0.000000 0.000000
														CHANNELS 3 Xrotation Yrotation Zrotation
														End Site
														{
															OFFSET 0.000000 0.000000 0.000000
														}
													}
												}
											}
										}
										JOINT RightHandMiddle1
										{
											OFFSET -23.810097 0.000000 0.000000
											CHANNELS 3 Xrotation Yrotation Zrotation
											JOINT RightHandMiddle2
											{
												OFFSET -7.176498 0.000000 0.000000
												CHANNELS 3 Xrotation Yrotation Zrotation
												JOINT RightHandMiddle3
												{
													OFFSET -6.774902 0.000000 0.000000
													CHANNELS 3 Xrotation Yrotation Zrotation
													JOINT RightHandMiddle4
													{
														OFFSET -5.403328 0.000000 0.000000
														CHANNELS 3 Xrotation Yrotation Zrotation
														End Site
														{
															OFFSET 0.000000 0.000000 0.000000
														}
													}
												}
											}
										}
										JOINT RightHandRing1
										{
											OFFSET -22.908302 -0.839325 -6.020576
											CHANNELS 3 Xrotation Yrotation Zrotation
											JOINT RightHandRing2
											{
												OFFSET -6.337502 0.000000 0.000000
												CHANNELS 3 Xrotation Yrotation Zrotation
												JOINT RightHandRing3
												{
													OFFSET -5.779297 0.000000 0.000000
													CHANNELS 3 Xrotation Yrotation Zrotation
													JOINT RightHandRing4
													{
														OFFSET -4.965698 0.000000 0.000000
														CHANNELS 3 Xrotation Yrotation Zrotation
														End Site
														{
															OFFSET 0.000000 0.000000 0.000000
														}
													}
												}
											}
										}
										JOINT RightHandPinky1
										{
											OFFSET -20.037003 -1.530334 -10.950259
											CHANNELS 3 Xrotation Yrotation Zrotation
											JOINT RightHandPinky2
											{
												OFFSET -5.254700 0.000000 0.000000
												CHANNELS 3 Xrotation Yrotation Zrotation
												JOINT RightHandPinky3
												{
													OFFSET -4.810204 0.000000 0.000000
													CHANNELS 3 Xrotation Yrotation Zrotation
													JOINT RightHandPinky4
													{
														OFFSET -3.647202 0.000000 0.000000
														CHANNELS 3 Xrotation Yrotation Zrotation
														End Site
														{
															OFFSET 0.000000 0.000000 0.000000
														}
													}
												}
											}
										}
									}
								}
							}
						}
					}
				}
			}
		}
	}
	JOINT LeftUpLeg
	{
		OFFSET 15.427100 -6.655098 0.678600
		CHANNELS 3 Xrotation Yrotation Zrotation
		JOINT LeftLeg
		{
			OFFSET 4.081073 -39.591068 13.024000
			CHANNELS 3 Xrotation Yrotation Zrotation
			JOINT LeftFoot
			{
				OFFSET -4.081074 -37.707932 -15.979700
				CHANNELS 3 Xrotation Yrotation Zrotation
				JOINT LeftToeBase
				{
					OFFSET 5.346399 -15.068900 20.645000
					CHANNELS 3 Xrotation Yrotation Zrotation
					JOINT LeftToe_End
					{
						OFFSET 2.754700 0.931300 11.300900
						CHANNELS 3 Xrotation Yrotation Zrotation
						End Site
						{
							OFFSET 0.000000 0.000000 0.000000
						}
					}
				}
			}
		}
	}
	JOINT RightUpLeg
	{
		OFFSET -15.569500 -6.655098 0.678600
		CHANNELS 3 Xrotation Yrotation Zrotation
		JOINT RightLeg
		{
			OFFSET -4.081825 -39.591045 13.023800
			CHANNELS 3 Xrotation Yrotation Zrotation
			JOINT RightFoot
			{
				OFFSET 4.081824 -37.707954 -15.979600
				CHANNELS 3 Xrotation Yrotation Zrotation
				JOINT RightToeBase
				{
					OFFSET -5.346400 -15.068900 20.645000
					CHANNELS 3 Xrotation Yrotation Zrotation
					JOINT RightToe_End
					{
						OFFSET -2.754700 0.931300 11.300900
						CHANNELS 3 Xrotation Yrotation Zrotation
						End Site
						{
							OFFSET 0.000000 0.000000 0.000000
						}
					}
				}
			}
		}
	}
}
MOTION
Frames: 5
Frame Time: 0.016667
2.744167 91.259567 98.247482 -171.507894 67.321534 177.665487 10.514218 -3.250890 -5.689082 5.905954 -0.746148 -0.137393 0.000000 0.000000 0.000000 5.913743 -0.679941 -0.131286 -10.724003 -0.020879 2.039221 -4.215063 13.545545 -3.367737 0.000000 0.000003 -0.000000 4.565335 8.264144 -9.764206 0.000000 0.000000 0.000000 -7.251023 -13.343450 -59.256495 0.000004 -11.301092 -0.000011 9.160502 -15.323029 -1.192293 -3.469765 3.607323 7.883178 9.703621 22.223513 2.891193 -5.879052 9.699139 15.674852 0.000000 0.000001 -0.000000 0.162356 3.429611 -10.498180 0.209649 1.554736 -15.358573 0.209648 1.554736 -15.358573 0.000000 -0.000000 -0.000000 0.362542 4.206375 -18.344232 0.474609 2.311791 -23.200220 0.474607 2.311793 -23.200240 -0.000000 0.000000 -0.000003 0.689026 4.991708 -26.673256 0.865734 3.066787 -31.521439 0.865731 3.066780 -31.521446 0.000000 -0.000000 0.000000 0.902503 5.377880 -30.995371 1.110592 3.433632 -35.838170 1.110590 3.433625 -35.838149 0.000000 -0.000001 0.000000 1.424811 6.319847 17.460016 0.000000 0.000000 0.000000 -2.214355 -4.391941 64.929875 0.000013 27.167072 -0.000002 -23.146954 -17.077643 -15.152660 -1.986170 -5.435663 -3.761611 8.766487 -20.697683 -3.062073 -5.504776 -5.510968 -14.718516 0.000001 0.000000 -0.000000 2.057125 -6.108261 55.293554 5.419343 -4.594512 99.429366 3.163284 -4.411569 71.271262 0.000000 0.000000 -0.000002 2.592849 -6.426548 62.973436 4.946629 -4.648190 93.567322 3.098024 -4.388965 70.420575 -0.000001 -0.000000 0.000000 2.854993 -6.549359 66.538583 4.919143 -4.649811 93.228209 2.921289 -4.322230 68.093919 0.000000 0.000000 0.000001 1.542111 -5.696826 47.168200 2.898967 -4.313214 67.797359 2.788737 -4.266687 66.323930 0.000001 -0.000001 -0.000000 -25.207503 9.134593 7.861946 30.878592 3.705602 2.476724 -1.030769 1.526539 -15.075243 -1.861501 -0.000001 -0.000004 0.000000 -0.000004 0.000000 -2.190286 -10.313672 -14.935286 27.876891 -7.001350 -1.912546 -20.726371 -7.528437 12.414539 -6.933668 0.000011 0.000006 0.000000 0.000000 -0.000000 
2.833864 91.303207 97.872688 -172.156462 65.425754 178.421275 10.549769 -3.240183 -5.987509 5.937753 -0.731594 -0.053678 0.000000 0.000000 0.000000 5.944720 -0.659886 -0.046719 -10.723272 -0.058135 2.025080 -4.160083 14.345677 -3.272149 0.000000 0.000000 -0.000000 4.439879 8.094345 -9.464046 0.000000 0.000000 0.000000 -6.237167 -11.834768 -59.241687 0.000007 -11.844613 0.000013 9.598149 -13.812546 -2.183865 -3.469766 3.607323 7.883179 9.703622 22.223513 2.891199 -5.879053 9.699139 15.674854 0.000001 -0.000000 -0.000001 0.162356 3.429611 -10.498181 0.209649 1.554736 -15.358573 0.209648 1.554736 -15.358573 0.000000 -0.000000 0.000000 0.362542 4.206374 -18.344230 0.474609 2.311791 -23.200223 0.474607 2.311793 -23.200237 -0.000000 -0.000000 -0.000002 0.689026 4.991708 -26.673256 0.865734 3.066787 -31.521443 0.865730 3.066780 -31.521443 -0.000000 0.000000 0.000000 0.902504 5.377880 -30.995371 1.110593 3.433632 -35.838173 1.110590 3.433624 -35.838143 0.000000 -0.000000 -0.000000 1.440125 6.247017 17.504255 0.000000 0.000000 0.000000 -2.407548 -5.275739 64.582505 0.000016 26.607748 -0.000010 -21.465302 -16.875377 -14.388029 -1.986171 -5.435664 -3.761607 8.766489 -20.697683 -3.062075 -5.504769 -5.510971 -14.718516 -0.000000 0.000001 -0.000001 2.057123 -6.108261 55.293557 5.419344 -4.594512 99.429372 3.163283 -4.411569 71.271262 0.000001 -0.000001 -0.000000 2.592850 -6.426551 62.973429 4.946629 -4.648189 93.567315 3.098021 -4.388965 70.420575 -0.000001 0.000001 0.000001 2.854993 -6.549360 66.538576 4.919144 -4.649810 93.228203 2.921289 -4.322230 68.093919 0.000000 0.000000 -0.000000 1.542111 -5.696826 47.168200 2.898968 -4.313214 67.797359 2.788738 -4.266687 66.323924 0.000002 -0.000001 0.000000 -24.879049 8.943877 8.038018 29.782125 4.559525 2.728912 -1.353443 1.975204 -14.644747 -1.662279 -0.000008 0.000002 0.000000 -0.000002 -0.000000 -1.270058 -10.882237 -14.937863 27.341228 -7.035923 -1.906553 -20.752568 -9.051233 12.615911 -6.963193 -0.000023 -0.000002 -0.000000 0.000000 -0.000000 
2.929495 91.340370 97.450523 -172.646118 63.537145 179.034530 10.613037 -3.210885 -6.323509 5.956441 -0.710472 0.027104 0.000000 0.000000 0.000000 5.962353 -0.633104 0.034883 -10.724163 -0.096667 2.008865 -4.103970 15.186861 -3.159079 0.000000 0.000001 -0.000000 4.315407 7.926119 -9.159257 0.000000 0.000000 0.000000 -5.366281 -10.439496 -59.331142 0.000002 -12.405899 0.000006 10.104735 -12.230443 -3.230666 -3.469765 3.607323 7.883176 9.703622 22.223515 2.891199 -5.879054 9.699139 15.674854 -0.000004 -0.000001 -0.000003 0.162356 3.429611 -10.498177 0.209649 1.554736 -15.358575 0.209647 1.554736 -15.358577 -0.000000 -0.000000 -0.000000 0.362542 4.206374 -18.344228 0.474609 2.311790 -23.200223 0.474608 2.311793 -23.200237 0.000000 0.000000 0.000001 0.689026 4.991708 -26.673260 0.865735 3.066787 -31.521439 0.865732 3.066780 -31.521443 0.000001 0.000000 -0.000001 0.902504 5.377880 -30.995371 1.110593 3.433633 -35.838166 1.110591 3.433623 -35.838149 0.000000 0.000000 0.000000 1.452239 6.186893 17.530471 0.000000 0.000000 0.000000 -2.514474 -6.093097 64.276151 -0.000007 26.010559 0.000003 -19.830700 -16.637576 -13.686411 -1.986170 -5.435665 -3.761607 8.766488 -20.697683 -3.062077 -5.504773 -5.510966 -14.718515 -0.000002 0.000000 -0.000002 2.057124 -6.108262 55.293551 5.419344 -4.594511 99.429366 3.163286 -4.411570 71.271255 0.000001 -0.000001 0.000002 2.592850 -6.426550 62.973429 4.946629 -4.648188 93.567322 3.098024 -4.388966 70.420575 0.000000 0.000000 -0.000000 2.854993 -6.549361 66.538576 4.919143 -4.649811 93.228203 2.921290 -4.322230 68.093926 -0.000000 0.000001 -0.000000 1.542112 -5.696828 47.168200 2.898968 -4.313213 67.797359 2.788737 -4.266687 66.323924 0.000001 0.000001 -0.000001 -24.447260 8.703244 8.112922 28.588247 5.224498 2.948031 -1.511873 2.530004 -14.252204 -1.559810 -0.000011 -0.000001 -0.000000 0.000000 0.000000 -0.286081 -11.461276 -14.953772 26.770416 -7.083705 -1.896279 -20.763792 -10.555738 12.864093 -6.986895 0.000017 0.000004 0.000000 -0.000000 -0.000000 
3.031485 91.375099 96.975906 -173.029251 61.664218 179.546248 10.689206 -3.165456 -6.679152 5.960718 -0.683481 0.100004 0.000000 0.000000 0.000000 5.965379 -0.600648 0.108447 -10.728262 -0.136313 1.990615 -4.053720 16.057577 -3.028832 -0.000000 0.000001 -0.000000 4.191116 7.756936 -8.850421 0.000000 0.000000 0.000000 -4.627759 -9.151169 -59.511732 -0.000001 -12.942806 0.000002 10.682204 -10.597900 -4.326581 -3.469766 3.607324 7.883183 9.703622 22.223515 2.891203 -5.879051 9.699139 15.674852 0.000001 0.000002 -0.000001 0.162356 3.429611 -10.498181 0.209648 1.554736 -15.358575 0.209649 1.554736 -15.358575 0.000000 0.000000 -0.000002 0.362542 4.206374 -18.344232 0.474610 2.311791 -23.200216 0.474607 2.311793 -23.200238 -0.000001 0.000000 -0.000002 0.689026 4.991708 -26.673260 0.865735 3.066787 -31.521443 0.865731 3.066780 -31.521446 0.000001 -0.000000 0.000001 0.902504 5.377881 -30.995368 1.110593 3.433632 -35.838166 1.110591 3.433624 -35.838153 -0.000001 0.000000 -0.000000 1.460386 6.141552 17.531887 0.000000 0.000000 0.000000 -2.497079 -6.813984 64.020333 -0.000010 25.388727 0.000016 -18.293287 -16.391178 -13.073739 -1.986170 -5.435664 -3.761611 8.766490 -20.697683 -3.062073 -5.504771 -5.510971 -14.718518 -0.000002 0.000002 -0.000000 2.057124 -6.108262 55.293557 5.419344 -4.594509 99.429366 3.163285 -4.411569 71.271255 -0.000001 -0.000000 -0.000000 2.592848 -6.426548 62.973429 4.946629 -4.648188 93.567308 3.098025 -4.388965 70.420575 -0.000000 -0.000002 -0.000002 2.854993 -6.549361 66.538576 4.919143 -4.649810 93.228203 2.921291 -4.322231 68.093919 0.000001 0.000000 0.000001 1.542112 -5.696827 47.168197 2.898967 -4.313214 67.797359 2.788736 -4.266687 66.323924 -0.000000 -0.000002 0.000001 -23.931878 8.438046 8.103103 27.331320 5.735983 3.134618 -1.475027 3.182147 -13.993773 -1.568500 -0.000006 -0.000005 0.000000 -0.000001 -0.000000 0.771099 -12.053580 -14.966941 26.134194 -7.139676 -1.880974 -20.760893 -12.054445 13.161111 -6.992221 -0.000002 -0.000002 -0.000000 -0.000000 -0.000000 
3.141121 91.424988 96.441566 -173.346964 59.810191 179.983162 10.763554 -3.109780 -7.031741 5.949794 -0.652336 0.160545 0.000000 0.000000 0.000000 5.953079 -0.564604 0.169432 -10.734680 -0.177072 1.970380 -4.013793 16.945792 -2.882280 -0.000001 0.000000 -0.000000 4.066037 7.584048 -8.539698 0.000000 0.000000 0.000000 -4.007989 -7.960450 -59.768984 0.000012 -13.413253 0.000002 11.330649 -8.935667 -5.465139 -3.469765 3.607323 7.883177 9.703623 22.223515 2.891195 -5.879052 9.699139 15.674849 -0.000002 -0.000001 -0.000000 0.162357 3.429610 -10.498182 0.209648 1.554736 -15.358572 0.209647 1.554736 -15.358572 -0.000001 -0.000000 0.000000 0.362543 4.206375 -18.344232 0.474609 2.311792 -23.200221 0.474606 2.311793 -23.200237 0.000000 -0.000000 0.000000 0.689027 4.991708 -26.673260 0.865735 3.066787 -31.521439 0.865730 3.066781 -31.521443 0.000000 -0.000000 -0.000000 0.902504 5.377880 -30.995371 1.110594 3.433632 -35.838170 1.110591 3.433624 -35.838146 0.000001 -0.000000 0.000000 1.464160 6.111478 17.503859 0.000000 0.000000 0.000000 -2.336152 -7.415577 63.819983 -0.000011 24.739471 0.000007 -16.891336 -16.157446 -12.566106 -1.986172 -5.435663 -3.761610 8.766490 -20.697683 -3.062073 -5.504771 -5.510973 -14.718515 -0.000001 0.000001 -0.000003 2.057123 -6.108261 55.293557 5.419344 -4.594512 99.429366 3.163286 -4.411569 71.271262 -0.000002 -0.000001 -0.000001 2.592848 -6.426550 62.973429 4.946630 -4.648187 93.567315 3.098022 -4.388968 70.420575 -0.000000 0.000001 0.000003 2.854993 -6.549361 66.538576 4.919143 -4.649811 93.228203 2.921289 -4.322231 68.093919 0.000002 0.000002 0.000001 1.542112 -5.696827 47.168200 2.898970 -4.313212 67.797359 2.788738 -4.266687 66.323924 0.000001 -0.000000 -0.000000 -23.334805 8.168580 8.027560 26.008293 6.146240 3.292077 -1.194655 3.901532 -13.951255 -1.652524 -0.000004 0.000002 -0.000000 0.000001 -0.000000 1.925259 -12.668895 -14.950497 25.366078 -7.184745 -1.859493 -20.719492 -13.565462 13.491469 -6.974970 -0.000021 -0.000004 -0.000000 0.000000 -0.000000 
